<svg width="1200" height="1220" xmlns="http://www.w3.org/2000/svg">
 <!-- Created with Method Draw - http://github.com/duopixel/Method-Draw/ -->

 <g>
  <title>background</title>
  <rect fill="#542673" id="canvas_background" height="1222" width="1202" y="-1" x="-1"/>
 </g>
 <g>
  <title>Layer 1</title>
  <path stroke="null" id="svg_2" d="m29.41634,392.3008c37.46253,-14.84702 96.44608,-26.82042 102.42415,-9.57872c5.57953,16.76276 -42.24498,62.74062 -40.65083,124.04443c1.99269,61.30381 53.40403,138.41251 42.24498,146.55442c-10.76051,8.14191 -84.09142,-52.20403 -129.5247,-68.48785c-45.03474,-16.76276 -62.17186,11.01553 -92.06217,29.2151c-29.49178,17.72063 -72.13529,24.90467 -89.27241,4.78936c-17.13711,-20.59425 -9.16636,-68.96679 -27.49909,-122.12869c-18.33273,-53.64083 -62.57039,-111.11316 -70.93968,-174.33271c-8.36929,-62.74062 19.52834,-130.74953 64.96162,-111.59209c45.43328,19.15744 108.40221,125.48124 147.85743,169.54335c39.05668,44.06211 54.99818,26.34148 92.46071,11.9734z" fill="#D3D925"/>
  <g stroke="null" id="svg_7">
   <path stroke="null" id="svg_6" d="m1096.31055,292.84296c15.15127,22.68125 9.37936,64.45067 18.51822,93.19522c9.13886,28.96912 32.948,45.36249 50.50424,70.96311c17.55624,25.60062 28.61907,60.8576 11.06283,76.12815c-17.55624,15.27054 -63.73154,10.55464 -96.43905,27.39715c-32.46701,16.61794 -51.22573,54.56973 -75.51586,63.10327c-24.04964,8.53354 -53.63069,-12.35117 -82.24976,-31.21479c-28.85957,-18.63904 -56.75715,-35.25699 -60.36459,-59.06107c-3.60745,-23.80408 17.31574,-54.7943 23.56865,-82.41602c6.25291,-27.62172 -1.92397,-51.87493 -0.96199,-79.72121c0.96199,-27.84628 11.54383,-59.28564 33.90999,-77.92468c22.60666,-18.41448 56.99764,-24.25321 92.11011,-25.37605c35.11247,-1.12283 70.94643,2.47023 85.85721,24.92692z" fill="#D3D925"/>
  </g>
  <g stroke="null" id="svg_17">
   <path stroke="null" id="svg_16" d="m997.04618,947.99718c37.02222,6.78174 108.34445,-33.06099 129.30556,-31.08298c20.96111,1.97801 -8.43889,46.3419 -13.88333,87.03235c-5.44444,40.97302 12.79445,78.55517 0.27222,95.50953c-12.52222,17.23693 -56.35,13.84606 -87.65556,12.99834c-31.30556,-0.84772 -50.36111,0.56515 -78.4,16.95435c-28.03889,16.10664 -65.06111,46.90705 -95.27778,46.90705c-30.21667,0.28257 -53.35556,-30.23526 -62.33889,-63.29625c-8.98333,-33.34356 -3.53889,-69.51285 -2.45,-105.11699c1.08889,-35.32157 -2.17778,-70.078 14.7,-89.5755c16.60556,-19.21493 53.35556,-22.88838 82.48334,-34.47385c28.85556,-11.3029 50.36111,-30.51784 62.33889,-13.28091c11.97778,17.23693 14.15556,70.64314 50.90556,77.42488z" fill="#D3D925"/>
  </g>
 </g>
</svg>