<svg id="Camada_1" data-name="Camada 1" xmlns="http://www.w3.org/2000/svg" xmlns:xlink="http://www.w3.org/1999/xlink" viewBox="0 0 790.01 731"><defs><linearGradient id="Gradiente_sem_nome" x1="461.66" y1="-60.35" x2="746.21" y2="611.54" gradientTransform="matrix(1, 0, 0, -1, -217.05, 646.07)" gradientUnits="userSpaceOnUse"><stop offset="0" stop-color="gray" stop-opacity="0.25"/><stop offset="0.54" stop-color="gray" stop-opacity="0.12"/><stop offset="1" stop-color="gray" stop-opacity="0.1"/></linearGradient><linearGradient id="Gradiente_sem_nome_2" x1="533.22" y1="43.47" x2="533.22" y2="241.76" gradientTransform="matrix(1, 0, 0, -1, -205, 647.5)" xlink:href="#Gradiente_sem_nome"/><linearGradient id="Gradiente_sem_nome_3" x1="-100.79" y1="304.17" x2="-100.79" y2="502.54" gradientTransform="translate(345 647.5) rotate(180)" xlink:href="#Gradiente_sem_nome"/><linearGradient id="Gradiente_sem_nome_4" x1="376.5" y1="304.5" x2="376.5" y2="489.39" gradientTransform="matrix(1, 0, 0, -1, -205, 647.5)" xlink:href="#Gradiente_sem_nome"/><linearGradient id="Gradiente_sem_nome_5" x1="3815.5" y1="29.5" x2="3815.5" y2="214.39" gradientTransform="translate(4419 647.5) rotate(180)" xlink:href="#Gradiente_sem_nome"/></defs><title>undraw_chatting_2yvo</title><g opacity="0.5"><path d="M551.67,44l-332.5.81a13.67,13.67,0,0,0-13.63,13.69h0l1.51,621.89A13.67,13.67,0,0,0,220.74,694h0l332.5-.81a13.67,13.67,0,0,0,13.63-13.69v0L565.37,57.61A13.67,13.67,0,0,0,551.67,44Z" fill="url(#Gradiente_sem_nome)"/></g><rect x="211.16" y="52.87" width="350.11" height="631.95" rx="13.64" transform="translate(-0.9 0.94) rotate(-0.14)" fill="#fff"/><path d="M473.43,68.5a28.38,28.38,0,0,1-27.91,24.21L324.59,93a28.38,28.38,0,0,1-28-24.07l-64,.16a13.29,13.29,0,0,0-13.27,13.33h0l1.39,573.67A13.29,13.29,0,0,0,234,669.36h0l306-.74a13.29,13.29,0,0,0,13.27-13.33h0L551.88,81.62a13.29,13.29,0,0,0-13.33-13.27h0Z" fill="#6c63ff" opacity="0.4" style="isolation:isolate"/><rect x="343.32" y="76.33" width="78.02" height="4.88" rx="2" transform="translate(-1.14 5.75) rotate(-0.86)" fill="#dbdbdb"/><circle cx="437.9" cy="77.43" r="2.93" fill="#dbdbdb"/><g opacity="0.5"><path d="M427.07,504.63a98.85,98.85,0,1,0-154,82l.06.44a33.89,33.89,0,0,0,11.21,7.13l.13-.44c4.63,4,24.12,10.33,46.51,10.27h.49c14.18,0,29.58-2.5,43.12-9.83,0,0,.12-.26.3-.75a35.23,35.23,0,0,0,9.32-6.38c.05-.38.11-.75.16-1.12A98.73,98.73,0,0,0,427.07,504.63Z" fill="url(#Gradiente_sem_nome_2)"/></g><circle cx="328.21" cy="504.64" r="95.89" fill="#f5f5f5"/><path d="M291.58,544.07s-22.85,1.87-16.8,43.49a32.76,32.76,0,0,0,10.87,6.94L298.5,551Z" fill="#fda57d"/><path d="M365.72,544.07s22.85,1.87,16.8,43.49a32.76,32.76,0,0,1-10.87,6.94L358.8,551Z" fill="#fda57d"/><path d="M292.57,475.86s-10.87,31.64-16.8,28.64c0,0,57.22,49.43,107.75,0,0,0-8.9-15.82-21.75-28.67Z" fill="#333"/><circle cx="329.25" cy="472.89" r="42.51" fill="#333"/><path d="M365.28,544.07H291.15l-6.92,29.66s-4.06,13.73,1,19.77,52.28,19.77,87,1a38.67,38.67,0,0,0,1-24.71c-4-13.84-1-1-1-1Z" opacity="0.1" style="isolation:isolate"/><path d="M366.27,544.07H292.13l-6.92,29.66s-4.06,13.73,1,19.77,52.28,19.77,87,1a38.67,38.67,0,0,0,1-24.71c-4-13.84-1-1-1-1Z" opacity="0.1" style="isolation:isolate"/><path d="M365.72,544.07H291.58l-6.92,29.66s-4.06,13.73,1,19.77,52.28,19.77,87,1a38.67,38.67,0,0,0,1-24.71c-4-13.84-1-1-1-1Z" fill="#6c63ff"/><path d="M314.32,519.46H344v28.7a9.85,9.85,0,0,1-9.85,9.85h-10a9.85,9.85,0,0,1-9.85-9.85v-28.7Z" opacity="0.1" style="isolation:isolate"/><path d="M314.32,518.37H344v28.7a9.85,9.85,0,0,1-9.85,9.85h-10a9.85,9.85,0,0,1-9.85-9.85v-28.7Z" fill="#fda57d"/><path d="M314.38,522.64a42.69,42.69,0,0,0,29.66.08v-3.64H314.38Z" opacity="0.1" style="isolation:isolate"/><circle cx="329.25" cy="482.12" r="42.51" fill="#fda57d"/><path d="M288.62,466h81.06s-6.92-32.73-37.56-30.64S288.62,466,288.62,466Z" fill="#333"/><ellipse cx="287.63" cy="480.31" rx="3.95" ry="7.41" fill="#fda57d"/><ellipse cx="370.66" cy="480.31" rx="3.95" ry="7.41" fill="#fda57d"/><path d="M288.62,467.07h81.06s-6.92-32.73-37.56-30.64S288.62,467.07,288.62,467.07Z" opacity="0.1" style="isolation:isolate"/><g opacity="0.5"><path d="M346.94,243.85a98.85,98.85,0,1,1,154,82l-.06.44a33.9,33.9,0,0,1-11.21,7.21l-.13-.44c-4.63,4-24.12,10.33-46.51,10.27h-.49c-14.18,0-29.58-2.5-43.12-9.83,0,0-.12-.26-.3-.75a35.23,35.23,0,0,1-9.32-6.38c-.05-.38-.11-.75-.16-1.12A98.74,98.74,0,0,1,346.94,243.85Z" fill="url(#Gradiente_sem_nome_3)"/></g><circle cx="445.79" cy="243.86" r="95.89" fill="#f5f5f5"/><path d="M408.2,280.38s-22.85,1.87-16.8,43.49a33,33,0,0,0,10.87,6.92l12.85-43.49Z" fill="#be7c5e"/><path d="M482.33,280.38s22.85,1.87,16.8,43.49a33,33,0,0,1-10.87,6.92L475.41,287.3Z" fill="#be7c5e"/><path d="M409.18,212.17s-1.76,5.12-4.25,11c-5.44,13,.77,62.71,13.78,68,14.6,6,33.8,9.76,53.75,2.49,17.33-6.32,22.68-63,10.42-76.75-1.44-1.62-2.94-3.23-4.51-4.79Z" fill="#333"/><circle cx="445.86" cy="209.21" r="42.51" fill="#333"/><path d="M481.9,280.38H407.76L400.84,310s-4.06,13.73,1,19.77,52.28,19.77,87,1a38.67,38.67,0,0,0,1-24.71c-4-13.84-1-1-1-1Z" opacity="0.1" style="isolation:isolate"/><path d="M482.88,280.38H408.74L401.82,310s-4.06,13.73,1,19.77,52.28,19.77,87,1a38.67,38.67,0,0,0,1-24.71c-4-13.84-1-1-1-1Z" opacity="0.1" style="isolation:isolate"/><path d="M482.33,280.38H408.2L401.28,310s-4.06,13.73,1,19.77,52.28,19.77,87,1a38.67,38.67,0,0,0,1-24.71c-4-13.84-1-1-1-1Z" fill="#f55f44"/><path d="M430.93,255.78h29.66v28.7a9.85,9.85,0,0,1-9.85,9.85h-10a9.85,9.85,0,0,1-9.85-9.85h0v-28.7h0Z" opacity="0.1" style="isolation:isolate"/><path d="M430.93,254.68h29.66v28.7a9.85,9.85,0,0,1-9.85,9.85h-10a9.85,9.85,0,0,1-9.85-9.85h0v-28.7Z" fill="#be7c5e"/><path d="M431,259a42.69,42.69,0,0,0,29.66.08v-3.64H431Z" opacity="0.1" style="isolation:isolate"/><circle cx="445.86" cy="218.43" r="42.51" fill="#be7c5e"/><path d="M405.23,202.29h81.06s-6.92-32.73-37.56-30.64S405.23,202.29,405.23,202.29Z" fill="#333"/><ellipse cx="404.24" cy="216.62" rx="3.95" ry="7.41" fill="#be7c5e"/><ellipse cx="487.27" cy="216.62" rx="3.95" ry="7.41" fill="#be7c5e"/><path d="M405.23,203.39h81.06s-6.92-32.73-37.56-30.64S405.23,203.39,405.23,203.39Z" opacity="0.1" style="isolation:isolate"/><g opacity="0.5"><path d="M5,158.11V300.83H229.86S246.46,333.5,275,343c0,0-9.11-23.14.4-42.17H338V158.11Z" fill="url(#Gradiente_sem_nome_4)"/></g><path d="M14,163V298H239s0,27,27,36c0,0-9-18,0-36h63V163Z" fill="#fff"/><rect x="41" y="190" width="180" height="18" fill="#6c63ff"/><rect x="41" y="217" width="243" height="18" fill="#6c63ff"/><rect x="41" y="244" width="216" height="18" fill="#6c63ff"/><g opacity="0.5"><path d="M770,433.11V575.83H545.15S528.55,608.5,500,618c0,0,9.11-23.14-.4-42.17H437V433.11Z" fill="url(#Gradiente_sem_nome_5)"/></g><path d="M761,438V573H536s0,27-27,36c0,0,9-18,0-36H446V438Z" fill="#fff"/><rect x="483" y="465" width="180" height="18" fill="#6c63ff"/><rect x="483" y="492" width="243" height="18" fill="#6c63ff"/><rect x="483" y="519" width="216" height="18" fill="#6c63ff"/><g opacity="0.5"><rect x="84" y="714" width="3" height="17" fill="#47e6b1"/><rect x="77" y="721" width="17" height="3" fill="#47e6b1"/></g><g opacity="0.5"><rect x="633" y="192" width="3" height="17" fill="#47e6b1"/><rect x="626" y="199" width="17" height="3" fill="#47e6b1"/></g><g opacity="0.5"><rect x="697" y="612" width="3" height="17" fill="#47e6b1"/><rect x="690" y="619" width="17" height="3" fill="#47e6b1"/></g><g opacity="0.5"><rect x="508" width="3" height="17" fill="#47e6b1"/><rect x="501" y="7" width="17" height="3" fill="#47e6b1"/></g><path d="M258.7,712.31a3.68,3.68,0,0,1-2-4.44,1.86,1.86,0,0,0,.08-.41h0a1.84,1.84,0,0,0-3.31-1.22h0a1.58,1.58,0,0,0-.2.36,3.68,3.68,0,0,1-4.44,2,1.86,1.86,0,0,0-.41-.08h0a1.84,1.84,0,0,0-1.22,3.31h0a1.58,1.58,0,0,0,.36.2,3.68,3.68,0,0,1,2,4.44,1.86,1.86,0,0,0-.08.41h0a1.84,1.84,0,0,0,3.31,1.22h0a1.58,1.58,0,0,0,.2-.36,3.68,3.68,0,0,1,4.44-2,1.86,1.86,0,0,0,.41.08h0a1.84,1.84,0,0,0,1.22-3.31h0A1.58,1.58,0,0,0,258.7,712.31Z" fill="#4d8af0" opacity="0.5" style="isolation:isolate"/><path d="M57.9,395a3.68,3.68,0,0,1-2-4.44,1.86,1.86,0,0,0,.08-.41h0a1.84,1.84,0,0,0-3.31-1.22h0a1.58,1.58,0,0,0-.2.36,3.68,3.68,0,0,1-4.44,2,1.86,1.86,0,0,0-.41-.08h0a1.84,1.84,0,0,0-1.22,3.31h0a1.58,1.58,0,0,0,.36.2,3.68,3.68,0,0,1,2,4.44,1.86,1.86,0,0,0-.08.41h0A1.84,1.84,0,0,0,52,400.8h0a1.58,1.58,0,0,0,.2-.36,3.68,3.68,0,0,1,4.44-2,1.86,1.86,0,0,0,.41.08h0a1.84,1.84,0,0,0,1.22-3.31h0A1.85,1.85,0,0,0,57.9,395Z" fill="#4d8af0" opacity="0.5" style="isolation:isolate"/><path d="M166.9,482a3.68,3.68,0,0,1-2-4.44,1.86,1.86,0,0,0,.08-.41h0a1.84,1.84,0,0,0-3.31-1.22h0a1.58,1.58,0,0,0-.2.36,3.68,3.68,0,0,1-4.44,2,1.86,1.86,0,0,0-.41-.08h0a1.84,1.84,0,0,0-1.22,3.31h0a1.58,1.58,0,0,0,.36.2,3.68,3.68,0,0,1,2,4.44,1.86,1.86,0,0,0-.08.41h0A1.84,1.84,0,0,0,161,487.8h0a1.58,1.58,0,0,0,.2-.36,3.68,3.68,0,0,1,4.44-2,1.86,1.86,0,0,0,.41.08h0a1.84,1.84,0,0,0,1.22-3.31h0A1.85,1.85,0,0,0,166.9,482Z" fill="#4d8af0" opacity="0.5" style="isolation:isolate"/><path d="M788.9,718a3.68,3.68,0,0,1-2-4.44,1.86,1.86,0,0,0,.08-.41h0a1.84,1.84,0,0,0-3.31-1.22h0a1.58,1.58,0,0,0-.2.36,3.68,3.68,0,0,1-4.44,2,1.86,1.86,0,0,0-.41-.08h0a1.84,1.84,0,0,0-1.22,3.31h0a1.58,1.58,0,0,0,.36.2,3.68,3.68,0,0,1,2,4.44,1.86,1.86,0,0,0-.08.41h0A1.84,1.84,0,0,0,783,723.8h0a1.58,1.58,0,0,0,.2-.36,3.68,3.68,0,0,1,4.44-2,1.86,1.86,0,0,0,.41.08h0a1.84,1.84,0,0,0,1.22-3.31h0A1.85,1.85,0,0,0,788.9,718Z" fill="#4d8af0" opacity="0.5" style="isolation:isolate"/><circle cx="6" cy="659" r="6" fill="#f55f44" opacity="0.5" style="isolation:isolate"/><circle cx="683" cy="64" r="6" fill="#4d8af0" opacity="0.5" style="isolation:isolate"/><circle cx="104" cy="76" r="6" fill="#47e6b1" opacity="0.5" style="isolation:isolate"/><circle cx="689" cy="346" r="6" fill="#f55f44" opacity="0.5" style="isolation:isolate"/></svg>
